<svg width="14" height="10" viewBox="0 0 14 10" fill="none" xmlns="http://www.w3.org/2000/svg">
<path d="M12.8359 1.89062C12.9818 2.03646 13.0547 2.21354 13.0547 2.42187C13.0547 2.63021 12.9818 2.80729 12.8359 2.95312L7.17969 8.60937L6.11719 9.67187C5.97135 9.81771 5.79427 9.89062 5.58594 9.89062C5.3776 9.89062 5.20052 9.81771 5.05469 9.67187L3.99219 8.60937L1.16406 5.78125C1.01823 5.63542 0.945313 5.45833 0.945313 5.25C0.945313 5.04167 1.01823 4.86458 1.16406 4.71875L2.22656 3.65625C2.3724 3.51042 2.54948 3.4375 2.75781 3.4375C2.96615 3.4375 3.14323 3.51042 3.28906 3.65625L5.58594 5.96094L10.7109 0.828125C10.8568 0.682291 11.0339 0.609375 11.2422 0.609375C11.4505 0.609375 11.6276 0.682291 11.7734 0.828125L12.8359 1.89062Z" fill="#E5E5E5"/>
</svg>
